<svg width="29" height="30" viewBox="0 0 29 30" fill="none" xmlns="http://www.w3.org/2000/svg">
<path d="M13.1716 22.0295H15.9834V16.4059H21.607V13.5941H15.9834V7.97057H13.1716V13.5941H7.54802V16.4059H13.1716V22.0295ZM14.5775 29.059C12.6327 29.059 10.805 28.6899 9.0945 27.9518C7.384 27.2137 5.8961 26.212 4.63079 24.9467C3.36549 23.6814 2.36379 22.1935 1.6257 20.483C0.887602 18.7725 0.518555 16.9449 0.518555 15C0.518555 13.0552 0.887602 11.2276 1.6257 9.51705C2.36379 7.80655 3.36549 6.31864 4.63079 5.05334C5.8961 3.78803 7.384 2.78634 9.0945 2.04824C10.805 1.31015 12.6327 0.941101 14.5775 0.941101C16.5223 0.941101 18.35 1.31015 20.0605 2.04824C21.771 2.78634 23.2589 3.78803 24.5242 5.05334C25.7895 6.31864 26.7912 7.80655 27.5293 9.51705C28.2674 11.2276 28.6364 13.0552 28.6364 15C28.6364 16.9449 28.2674 18.7725 27.5293 20.483C26.7912 22.1935 25.7895 23.6814 24.5242 24.9467C23.2589 26.212 21.771 27.2137 20.0605 27.9518C18.35 28.6899 16.5223 29.059 14.5775 29.059ZM14.5775 26.2472C17.7173 26.2472 20.3768 25.1576 22.5559 22.9785C24.7351 20.7993 25.8246 18.1399 25.8246 15C25.8246 11.8602 24.7351 9.20072 22.5559 7.02159C20.3768 4.84245 17.7173 3.75289 14.5775 3.75289C11.4377 3.75289 8.77818 4.84245 6.59904 7.02159C4.41991 9.20072 3.33034 11.8602 3.33034 15C3.33034 18.1399 4.41991 20.7993 6.59904 22.9785C8.77818 25.1576 11.4377 26.2472 14.5775 26.2472Z" fill="white"/>
</svg>
