<svg width="46" height="46" viewBox="0 0 46 46" fill="none" xmlns="http://www.w3.org/2000/svg">
<mask id="mask0_158_191" style="mask-type:alpha" maskUnits="userSpaceOnUse" x="0" y="0" width="46" height="46">
<rect width="46" height="46" fill="#D9D9D9"/>
</mask>
<g mask="url(#mask0_158_191)">
<path d="M23 42.1666L22.5208 36.4166H22.0417C17.5056 36.4166 13.6562 34.8354 10.4938 31.6729C7.33125 28.5104 5.75 24.6611 5.75 20.125C5.75 15.5889 7.33125 11.7396 10.4938 8.57706C13.6562 5.41456 17.5056 3.83331 22.0417 3.83331C24.3097 3.83331 26.426 4.25658 28.3906 5.1031C30.3552 5.94963 32.0802 7.1156 33.5656 8.60102C35.051 10.0864 36.217 11.8114 37.0635 13.776C37.9101 15.7406 38.3333 17.8569 38.3333 20.125C38.3333 22.5208 37.942 24.8208 37.1594 27.025C36.3767 29.2291 35.3066 31.2736 33.949 33.1583C32.5913 35.043 30.9781 36.7521 29.1094 38.2854C27.2406 39.8187 25.2042 41.1125 23 42.1666ZM26.8333 35.1708C29.1014 33.2541 30.9462 31.01 32.3677 28.4385C33.7892 25.867 34.5 23.0958 34.5 20.125C34.5 16.643 33.2941 13.6962 30.8823 11.2844C28.4705 8.87255 25.5236 7.66665 22.0417 7.66665C18.5597 7.66665 15.6128 8.87255 13.201 11.2844C10.7892 13.6962 9.58333 16.643 9.58333 20.125C9.58333 23.6069 10.7892 26.5538 13.201 28.9656C15.6128 31.3774 18.5597 32.5833 22.0417 32.5833H26.8333V35.1708ZM21.9937 30.6187C22.5368 30.6187 23 30.4271 23.3833 30.0437C23.7667 29.6604 23.9583 29.1972 23.9583 28.6541C23.9583 28.1111 23.7667 27.6479 23.3833 27.2646C23 26.8812 22.5368 26.6896 21.9937 26.6896C21.4507 26.6896 20.9875 26.8812 20.6042 27.2646C20.2208 27.6479 20.0292 28.1111 20.0292 28.6541C20.0292 29.1972 20.2208 29.6604 20.6042 30.0437C20.9875 30.4271 21.4507 30.6187 21.9937 30.6187ZM20.6042 24.5333H23.4792C23.4792 23.575 23.575 22.9041 23.7667 22.5208C23.9583 22.1375 24.5653 21.4347 25.5875 20.4125C26.1625 19.8375 26.6417 19.2146 27.025 18.5437C27.4083 17.8729 27.6 17.1541 27.6 16.3875C27.6 14.7583 27.049 13.5364 25.9469 12.7219C24.8448 11.9073 23.5431 11.5 22.0417 11.5C20.6361 11.5 19.4542 11.8913 18.4958 12.6739C17.5375 13.4566 16.8667 14.4069 16.4833 15.525L19.1667 16.5791C19.3264 16.0361 19.6299 15.501 20.0771 14.9739C20.5243 14.4469 21.1792 14.1833 22.0417 14.1833C22.9042 14.1833 23.551 14.4229 23.9823 14.9021C24.4135 15.3812 24.6292 15.9083 24.6292 16.4833C24.6292 17.0264 24.4694 17.5135 24.15 17.9448C23.8306 18.376 23.4472 18.8153 23 19.2625C21.8819 20.2208 21.2031 20.9795 20.9635 21.5385C20.724 22.0975 20.6042 23.0958 20.6042 24.5333Z" fill="#065076"/>
</g>
</svg>
