<svg width="25" height="25" viewBox="0 0 25 25" fill="none" xmlns="http://www.w3.org/2000/svg">
<mask id="mask0_282_294" style="mask-type:alpha" maskUnits="userSpaceOnUse" x="0" y="0" width="25" height="25">
<rect x="0.878906" y="0.612915" width="24" height="24" fill="#D9D9D9"/>
</mask>
<g mask="url(#mask0_282_294)">
<path d="M7.87891 21.6129C7.32891 21.6129 6.85807 21.4171 6.46641 21.0254C6.07474 20.6337 5.87891 20.1629 5.87891 19.6129V6.61292H4.87891V4.61292H9.87891V3.61292H15.8789V4.61292H20.8789V6.61292H19.8789V19.6129C19.8789 20.1629 19.6831 20.6337 19.2914 21.0254C18.8997 21.4171 18.4289 21.6129 17.8789 21.6129H7.87891ZM17.8789 6.61292H7.87891V19.6129H17.8789V6.61292ZM9.87891 17.6129H11.8789V8.61292H9.87891V17.6129ZM13.8789 17.6129H15.8789V8.61292H13.8789V17.6129Z" fill="#EE2617"/>
</g>
</svg>
