<svg width="32" height="32" viewBox="0 0 32 32" fill="none" xmlns="http://www.w3.org/2000/svg">
<mask id="mask0_27_248" style="mask-type:alpha" maskUnits="userSpaceOnUse" x="0" y="0" width="32" height="32">
<rect width="32" height="32" fill="#D9D9D9"/>
</mask>
<g mask="url(#mask0_27_248)">
<path d="M6.66667 27.9999C5.93333 27.9999 5.30556 27.7388 4.78333 27.2166C4.26111 26.6944 4 26.0666 4 25.3333V6.66659C4 5.93326 4.26111 5.30548 4.78333 4.78326C5.30556 4.26104 5.93333 3.99993 6.66667 3.99993H18.5667L15.9 6.66659H6.66667V25.3333H25.3333V16.0666L28 13.3999V25.3333C28 26.0666 27.7389 26.6944 27.2167 27.2166C26.6944 27.7388 26.0667 27.9999 25.3333 27.9999H6.66667ZM12 19.9999V14.3333L24.2333 2.09993C24.5 1.83326 24.8 1.63326 25.1333 1.49993C25.4667 1.36659 25.8 1.29993 26.1333 1.29993C26.4889 1.29993 26.8278 1.36659 27.15 1.49993C27.4722 1.63326 27.7667 1.83326 28.0333 2.09993L29.9 3.99993C30.1444 4.26659 30.3333 4.56104 30.4667 4.88326C30.6 5.20548 30.6667 5.53326 30.6667 5.86659C30.6667 6.19993 30.6056 6.5277 30.4833 6.84993C30.3611 7.17215 30.1667 7.46659 29.9 7.73326L17.6667 19.9999H12ZM14.6667 17.3333H16.5333L24.2667 9.59993L23.3333 8.66659L22.3667 7.73326L14.6667 15.4333V17.3333Z" fill="#1C1B1F"/>
</g>
</svg>
