<svg width="20" height="20" viewBox="0 0 20 20" fill="none" xmlns="http://www.w3.org/2000/svg">
<mask id="mask0_315_122" style="mask-type:alpha" maskUnits="userSpaceOnUse" x="0" y="0" width="20" height="20">
<rect width="20" height="20" fill="#D9D9D9"/>
</mask>
<g mask="url(#mask0_315_122)">
<path d="M1.66675 20V16.6667H18.3334V20H1.66675ZM5.00008 13.3333H6.16675L12.6667 6.85416L11.4792 5.66666L5.00008 12.1667V13.3333ZM3.33341 15V11.4583L12.6667 2.14582C12.8195 1.99305 12.9966 1.87499 13.198 1.79166C13.3994 1.70832 13.6112 1.66666 13.8334 1.66666C14.0556 1.66666 14.2709 1.70832 14.4792 1.79166C14.6876 1.87499 14.8751 1.99999 15.0417 2.16666L16.1876 3.33332C16.3542 3.4861 16.4758 3.66666 16.5522 3.87499C16.6286 4.08332 16.6667 4.2986 16.6667 4.52082C16.6667 4.72916 16.6286 4.93402 16.5522 5.13541C16.4758 5.3368 16.3542 5.52082 16.1876 5.68749L6.87508 15H3.33341Z" fill="#A5974A"/>
</g>
</svg>
