<svg width="20" height="20" viewBox="0 0 20 20" fill="none" xmlns="http://www.w3.org/2000/svg">
<mask id="mask0_180_116" style="mask-type:alpha" maskUnits="userSpaceOnUse" x="0" y="0" width="20" height="20">
<rect width="20" height="20" fill="#D9D9D9"/>
</mask>
<g mask="url(#mask0_180_116)">
<path d="M1.66675 20V16.6667H18.3334V20H1.66675ZM5.00008 13.3334H6.16675L12.6667 6.85419L11.4792 5.66669L5.00008 12.1667V13.3334ZM3.33341 15V11.4584L12.6667 2.14585C12.8195 1.99308 12.9966 1.87502 13.198 1.79169C13.3994 1.70835 13.6112 1.66669 13.8334 1.66669C14.0556 1.66669 14.2709 1.70835 14.4792 1.79169C14.6876 1.87502 14.8751 2.00002 15.0417 2.16669L16.1876 3.33335C16.3542 3.48613 16.4758 3.66669 16.5522 3.87502C16.6286 4.08335 16.6667 4.29863 16.6667 4.52085C16.6667 4.72919 16.6286 4.93405 16.5522 5.13544C16.4758 5.33683 16.3542 5.52085 16.1876 5.68752L6.87508 15H3.33341Z" fill="#EE2617"/>
</g>
</svg>
