<svg width="20" height="20" viewBox="0 0 20 20" fill="none" xmlns="http://www.w3.org/2000/svg">
<mask id="mask0_180_11" style="mask-type:alpha" maskUnits="userSpaceOnUse" x="0" y="0" width="20" height="20">
<rect width="20" height="20" fill="#D9D9D9"/>
</mask>
<g mask="url(#mask0_180_11)">
<path d="M8.33333 14.1667H11.6667V12.5H8.33333V14.1667ZM8.33333 10.8333H14.1667V9.16667H8.33333V10.8333ZM5.83333 7.5H14.1667V5.83333H5.83333V7.5ZM5.52083 18.3333C4.42361 18.3333 3.48958 17.9479 2.71875 17.1771C1.94792 16.4063 1.5625 15.4722 1.5625 14.375C1.5625 13.5833 1.76736 12.875 2.17708 12.25C2.58681 11.625 3.125 11.1528 3.79167 10.8333H1.66667V9.16667H6.66667V14.1667H5V12.1458C4.48611 12.2569 4.0625 12.5208 3.72917 12.9375C3.39583 13.3542 3.22917 13.8333 3.22917 14.375C3.22917 15.0139 3.45486 15.5556 3.90625 16C4.35764 16.4444 4.89583 16.6667 5.52083 16.6667V18.3333ZM8.33333 17.5V15.8333H15.8333V4.16667H4.16667V7.5H2.5V4.16667C2.5 3.70833 2.66319 3.31597 2.98958 2.98958C3.31597 2.66319 3.70833 2.5 4.16667 2.5H15.8333C16.2917 2.5 16.684 2.66319 17.0104 2.98958C17.3368 3.31597 17.5 3.70833 17.5 4.16667V15.8333C17.5 16.2917 17.3368 16.684 17.0104 17.0104C16.684 17.3368 16.2917 17.5 15.8333 17.5H8.33333Z" fill="#065076"/>
</g>
</svg>
