<svg width="26" height="26" viewBox="0 0 26 26" fill="none" xmlns="http://www.w3.org/2000/svg">
<mask id="mask0_26_682" style="mask-type:alpha" maskUnits="userSpaceOnUse" x="0" y="0" width="26" height="26">
<rect width="26" height="26" fill="#D9D9D9"/>
</mask>
<g mask="url(#mask0_26_682)">
<path d="M13.0003 23.8333C11.5198 23.8333 10.1205 23.5489 8.80241 22.9802C7.48435 22.4114 6.33331 21.6351 5.34928 20.651C4.36526 19.667 3.58887 18.516 3.02012 17.1979C2.45137 15.8798 2.16699 14.4805 2.16699 13C2.16699 11.5014 2.45137 10.0976 3.02012 8.78853C3.58887 7.4795 4.36526 6.33298 5.34928 5.34895C6.33331 4.36492 7.48435 3.58853 8.80241 3.01978C10.1205 2.45103 11.5198 2.16666 13.0003 2.16666C14.4989 2.16666 15.9028 2.45103 17.2118 3.01978C18.5208 3.58853 19.6673 4.36492 20.6514 5.34895C21.6354 6.33298 22.4118 7.4795 22.9805 8.78853C23.5493 10.0976 23.8337 11.5014 23.8337 13C23.8337 14.4805 23.5493 15.8798 22.9805 17.1979C22.4118 18.516 21.6354 19.667 20.6514 20.651C19.6673 21.6351 18.5208 22.4114 17.2118 22.9802C15.9028 23.5489 14.4989 23.8333 13.0003 23.8333ZM13.0003 21.6125C13.4698 20.9625 13.876 20.2854 14.2191 19.5812C14.5621 18.8771 14.842 18.1278 15.0587 17.3333H10.942C11.1587 18.1278 11.4385 18.8771 11.7816 19.5812C12.1246 20.2854 12.5309 20.9625 13.0003 21.6125ZM10.1837 21.1792C9.85866 20.5833 9.57428 19.9649 9.33053 19.3239C9.08678 18.683 8.88366 18.0194 8.72116 17.3333H5.52533C6.04894 18.2361 6.70345 19.0215 7.48887 19.6896C8.27428 20.3576 9.17255 20.8542 10.1837 21.1792ZM15.817 21.1792C16.8281 20.8542 17.7264 20.3576 18.5118 19.6896C19.2972 19.0215 19.9517 18.2361 20.4753 17.3333H17.2795C17.117 18.0194 16.9139 18.683 16.6701 19.3239C16.4264 19.9649 16.142 20.5833 15.817 21.1792ZM4.60449 15.1667H8.28783C8.23366 14.8055 8.19303 14.4489 8.16595 14.0969C8.13887 13.7448 8.12533 13.3792 8.12533 13C8.12533 12.6208 8.13887 12.2552 8.16595 11.9031C8.19303 11.551 8.23366 11.1944 8.28783 10.8333H4.60449C4.51421 11.1944 4.44651 11.551 4.40137 11.9031C4.35623 12.2552 4.33366 12.6208 4.33366 13C4.33366 13.3792 4.35623 13.7448 4.40137 14.0969C4.44651 14.4489 4.51421 14.8055 4.60449 15.1667ZM10.4545 15.1667H15.5462C15.6003 14.8055 15.641 14.4489 15.668 14.0969C15.6951 13.7448 15.7087 13.3792 15.7087 13C15.7087 12.6208 15.6951 12.2552 15.668 11.9031C15.641 11.551 15.6003 11.1944 15.5462 10.8333H10.4545C10.4003 11.1944 10.3597 11.551 10.3326 11.9031C10.3055 12.2552 10.292 12.6208 10.292 13C10.292 13.3792 10.3055 13.7448 10.3326 14.0969C10.3597 14.4489 10.4003 14.8055 10.4545 15.1667ZM17.7128 15.1667H21.3962C21.4864 14.8055 21.5541 14.4489 21.5993 14.0969C21.6444 13.7448 21.667 13.3792 21.667 13C21.667 12.6208 21.6444 12.2552 21.5993 11.9031C21.5541 11.551 21.4864 11.1944 21.3962 10.8333H17.7128C17.767 11.1944 17.8076 11.551 17.8347 11.9031C17.8618 12.2552 17.8753 12.6208 17.8753 13C17.8753 13.3792 17.8618 13.7448 17.8347 14.0969C17.8076 14.4489 17.767 14.8055 17.7128 15.1667ZM17.2795 8.66666H20.4753C19.9517 7.76388 19.2972 6.97846 18.5118 6.31041C17.7264 5.64235 16.8281 5.14582 15.817 4.82082C16.142 5.41666 16.4264 6.03506 16.6701 6.67603C16.9139 7.317 17.117 7.98055 17.2795 8.66666ZM10.942 8.66666H15.0587C14.842 7.87221 14.5621 7.12291 14.2191 6.41874C13.876 5.71457 13.4698 5.03749 13.0003 4.38749C12.5309 5.03749 12.1246 5.71457 11.7816 6.41874C11.4385 7.12291 11.1587 7.87221 10.942 8.66666ZM5.52533 8.66666H8.72116C8.88366 7.98055 9.08678 7.317 9.33053 6.67603C9.57428 6.03506 9.85866 5.41666 10.1837 4.82082C9.17255 5.14582 8.27428 5.64235 7.48887 6.31041C6.70345 6.97846 6.04894 7.76388 5.52533 8.66666Z" fill="#1C1B1F" fill-opacity="0.8"/>
</g>
</svg>
