<svg width="32" height="32" viewBox="0 0 32 32" fill="none" xmlns="http://www.w3.org/2000/svg">
<mask id="mask0_68_155" style="mask-type:alpha" maskUnits="userSpaceOnUse" x="0" y="0" width="32" height="32">
<rect width="32" height="32" fill="#D9D9D9"/>
</mask>
<g mask="url(#mask0_68_155)">
<path d="M14.6665 22.6667H9.33317C7.48873 22.6667 5.9165 22.0167 4.6165 20.7167C3.3165 19.4167 2.6665 17.8445 2.6665 16C2.6665 14.1556 3.3165 12.5834 4.6165 11.2834C5.9165 9.98337 7.48873 9.33337 9.33317 9.33337H14.6665V12H9.33317C8.22206 12 7.27761 12.3889 6.49984 13.1667C5.72206 13.9445 5.33317 14.8889 5.33317 16C5.33317 17.1112 5.72206 18.0556 6.49984 18.8334C7.27761 19.6112 8.22206 20 9.33317 20H14.6665V22.6667ZM10.6665 17.3334V14.6667H21.3332V17.3334H10.6665ZM17.3332 22.6667V20H22.6665C23.7776 20 24.7221 19.6112 25.4998 18.8334C26.2776 18.0556 26.6665 17.1112 26.6665 16C26.6665 14.8889 26.2776 13.9445 25.4998 13.1667C24.7221 12.3889 23.7776 12 22.6665 12H17.3332V9.33337H22.6665C24.5109 9.33337 26.0832 9.98337 27.3832 11.2834C28.6832 12.5834 29.3332 14.1556 29.3332 16C29.3332 17.8445 28.6832 19.4167 27.3832 20.7167C26.0832 22.0167 24.5109 22.6667 22.6665 22.6667H17.3332Z" fill="#1C1B1F"/>
</g>
</svg>
