<svg width="40" height="40" viewBox="0 0 40 40" fill="none" xmlns="http://www.w3.org/2000/svg">
<mask id="mask0_158_179" style="mask-type:alpha" maskUnits="userSpaceOnUse" x="0" y="0" width="40" height="40">
<rect width="40" height="40" fill="#D9D9D9"/>
</mask>
<g mask="url(#mask0_158_179)">
<path d="M6.66683 33.3334C5.75016 33.3334 4.96544 33.007 4.31266 32.3542C3.65989 31.7014 3.3335 30.9167 3.3335 30V10C3.3335 9.08335 3.65989 8.29863 4.31266 7.64585C4.96544 6.99308 5.75016 6.66669 6.66683 6.66669H33.3335C34.2502 6.66669 35.0349 6.99308 35.6877 7.64585C36.3404 8.29863 36.6668 9.08335 36.6668 10V18.3334H33.3335V10H21.6668V18.3334H18.3335V10H6.66683V30H18.3335V33.3334H6.66683ZM25.8335 36.6667C25.1391 36.6667 24.5488 36.4236 24.0627 35.9375C23.5766 35.4514 23.3335 34.8611 23.3335 34.1667V29.5834H26.6668V33.3334H33.3335V29.5834H36.6668V34.1667C36.6668 34.8611 36.4238 35.4514 35.9377 35.9375C35.4516 36.4236 34.8613 36.6667 34.1668 36.6667H25.8335ZM24.2918 30C23.5141 30 22.8891 29.6945 22.4168 29.0834C21.9446 28.4722 21.7779 27.7778 21.9168 27L22.5835 23.6667C22.7224 23.0834 23.0141 22.6042 23.4585 22.2292C23.9029 21.8542 24.4168 21.6667 25.0002 21.6667H35.0002C35.5835 21.6667 36.0974 21.8542 36.5418 22.2292C36.9863 22.6042 37.2779 23.0834 37.4168 23.6667L38.0835 27C38.2224 27.7778 38.0557 28.4722 37.5835 29.0834C37.1113 29.6945 36.4863 30 35.7085 30H24.2918ZM25.3752 26.6667H34.6252L34.2918 25H25.7085L25.3752 26.6667ZM8.3335 26.6667H16.6668V23.3334H8.3335V26.6667ZM8.3335 21.6667H16.6668V18.3334H8.3335V21.6667ZM8.3335 16.6667H16.6668V13.3334H8.3335V16.6667ZM23.3335 16.6667V13.3334H31.6668V16.6667H23.3335Z" fill="#065076"/>
</g>
</svg>
