<svg width="40" height="40" viewBox="0 0 40 40" fill="none" xmlns="http://www.w3.org/2000/svg">
<mask id="mask0_286_494" style="mask-type:alpha" maskUnits="userSpaceOnUse" x="0" y="0" width="40" height="40">
<rect width="40" height="40" fill="#D9D9D9"/>
</mask>
<g mask="url(#mask0_286_494)">
<path d="M10.8333 33.3334C8.30551 33.3334 6.14579 32.4584 4.35413 30.7084C2.56246 28.9584 1.66663 26.8195 1.66663 24.2917C1.66663 22.1251 2.3194 20.1945 3.62496 18.5001C4.93052 16.8056 6.63885 15.7223 8.74996 15.2501C9.4444 12.6945 10.8333 10.6251 12.9166 9.04175C15 7.45841 17.3611 6.66675 20 6.66675C23.25 6.66675 26.0069 7.79869 28.2708 10.0626C30.5347 12.3265 31.6666 15.0834 31.6666 18.3334C33.5833 18.5556 35.1736 19.382 36.4375 20.8126C37.7014 22.2431 38.3333 23.9167 38.3333 25.8334C38.3333 27.9167 37.6041 29.6876 36.1458 31.1459C34.6875 32.6042 32.9166 33.3334 30.8333 33.3334H21.6666C20.75 33.3334 19.9652 33.007 19.3125 32.3542C18.6597 31.7015 18.3333 30.9167 18.3333 30.0001V21.4167L15.6666 24.0001L13.3333 21.6667L20 15.0001L26.6666 21.6667L24.3333 24.0001L21.6666 21.4167V30.0001H30.8333C32 30.0001 32.9861 29.5973 33.7916 28.7917C34.5972 27.9862 35 27.0001 35 25.8334C35 24.6667 34.5972 23.6806 33.7916 22.8751C32.9861 22.0695 32 21.6667 30.8333 21.6667H28.3333V18.3334C28.3333 16.0279 27.5208 14.0626 25.8958 12.4376C24.2708 10.8126 22.3055 10.0001 20 10.0001C17.6944 10.0001 15.7291 10.8126 14.1041 12.4376C12.4791 14.0626 11.6666 16.0279 11.6666 18.3334H10.8333C9.22218 18.3334 7.84718 18.9029 6.70829 20.0417C5.5694 21.1806 4.99996 22.5556 4.99996 24.1667C4.99996 25.7779 5.5694 27.1529 6.70829 28.2917C7.84718 29.4306 9.22218 30.0001 10.8333 30.0001H15V33.3334H10.8333Z" fill="#065076"/>
</g>
</svg>
