<svg width="13" height="21" viewBox="0 0 13 21" fill="none" xmlns="http://www.w3.org/2000/svg">
<path d="M12.7637 14.4001C12.7637 16.1334 12.1553 17.6084 10.9387 18.8251C9.72201 20.0417 8.24701 20.6501 6.51367 20.6501C4.78034 20.6501 3.30534 20.0417 2.08867 18.8251C0.872005 17.6084 0.263672 16.1334 0.263672 14.4001V5.15005C0.263672 3.90005 0.701172 2.83755 1.57617 1.96255C2.45117 1.08755 3.51367 0.650055 4.76367 0.650055C6.01367 0.650055 7.07617 1.08755 7.95117 1.96255C8.82617 2.83755 9.26367 3.90005 9.26367 5.15005V13.9001C9.26367 14.6667 8.99701 15.3167 8.46367 15.8501C7.93034 16.3834 7.28034 16.6501 6.51367 16.6501C5.74701 16.6501 5.09701 16.3834 4.56367 15.8501C4.03034 15.3167 3.76367 14.6667 3.76367 13.9001V4.65005H5.76367V13.9001C5.76367 14.1167 5.83451 14.2959 5.97617 14.4376C6.11784 14.5792 6.29701 14.6501 6.51367 14.6501C6.73034 14.6501 6.90951 14.5792 7.05117 14.4376C7.19284 14.2959 7.26367 14.1167 7.26367 13.9001V5.15005C7.24701 4.45005 7.00117 3.85839 6.52617 3.37506C6.05117 2.89172 5.46367 2.65005 4.76367 2.65005C4.06367 2.65005 3.47201 2.89172 2.98867 3.37506C2.50534 3.85839 2.26367 4.45005 2.26367 5.15005V14.4001C2.24701 15.5834 2.65534 16.5876 3.48867 17.4126C4.32201 18.2376 5.33034 18.6501 6.51367 18.6501C7.68034 18.6501 8.67201 18.2376 9.48867 17.4126C10.3053 16.5876 10.7303 15.5834 10.7637 14.4001V4.65005H12.7637V14.4001Z" fill="#1C1B1F"/>
</svg>
