<svg width="40" height="40" viewBox="0 0 40 40" fill="none" xmlns="http://www.w3.org/2000/svg">
<mask id="mask0_20_121" style="mask-type:alpha" maskUnits="userSpaceOnUse" x="0" y="0" width="40" height="40">
<rect width="40" height="40" fill="#065076"/>
</mask>
<g mask="url(#mask0_20_121)">
<path d="M26.8332 22.1667L24.4166 19.75C24.6666 18.4445 24.2916 17.2222 23.2916 16.0834C22.2916 14.9445 20.9999 14.5 19.4166 14.75L16.9999 12.3334C17.4721 12.1111 17.9513 11.9445 18.4374 11.8334C18.9235 11.7222 19.4443 11.6667 19.9999 11.6667C22.0832 11.6667 23.8541 12.3959 25.3124 13.8542C26.7707 15.3125 27.4999 17.0834 27.4999 19.1667C27.4999 19.7222 27.4443 20.2431 27.3332 20.7292C27.2221 21.2153 27.0555 21.6945 26.8332 22.1667ZM32.1666 27.4167L29.7499 25.0834C30.8055 24.2778 31.743 23.3959 32.5624 22.4375C33.3818 21.4792 34.0832 20.3889 34.6666 19.1667C33.2777 16.3611 31.2846 14.132 28.6874 12.4792C26.0902 10.8264 23.1943 10 19.9999 10C19.1943 10 18.4027 10.0556 17.6249 10.1667C16.8471 10.2778 16.0832 10.4445 15.3332 10.6667L12.7499 8.08335C13.8888 7.61113 15.0555 7.25696 16.2499 7.02085C17.4443 6.78474 18.6943 6.66669 19.9999 6.66669C24.1943 6.66669 27.9305 7.82641 31.2082 10.1459C34.486 12.4653 36.861 15.4722 38.3332 19.1667C37.6943 20.8056 36.8541 22.3264 35.8124 23.7292C34.7707 25.132 33.5555 26.3611 32.1666 27.4167ZM32.9999 37.6667L25.9999 30.75C25.0277 31.0556 24.0485 31.2847 23.0624 31.4375C22.0763 31.5903 21.0555 31.6667 19.9999 31.6667C15.8055 31.6667 12.0693 30.507 8.79157 28.1875C5.51379 25.8681 3.13879 22.8611 1.66656 19.1667C2.2499 17.6945 2.98601 16.3264 3.8749 15.0625C4.76379 13.7986 5.77768 12.6667 6.91657 11.6667L2.33323 7.00002L4.66657 4.66669L35.3332 35.3334L32.9999 37.6667ZM9.2499 14C8.44434 14.7222 7.70823 15.5139 7.04157 16.375C6.3749 17.2361 5.80545 18.1667 5.33323 19.1667C6.72212 21.9722 8.71518 24.2014 11.3124 25.8542C13.9096 27.507 16.8055 28.3334 19.9999 28.3334C20.5555 28.3334 21.0971 28.2986 21.6249 28.2292C22.1527 28.1597 22.6943 28.0834 23.2499 28L21.7499 26.4167C21.4443 26.5 21.1527 26.5625 20.8749 26.6042C20.5971 26.6459 20.3055 26.6667 19.9999 26.6667C17.9166 26.6667 16.1457 25.9375 14.6874 24.4792C13.2291 23.0209 12.4999 21.25 12.4999 19.1667C12.4999 18.8611 12.5207 18.5695 12.5624 18.2917C12.6041 18.0139 12.6666 17.7222 12.7499 17.4167L9.2499 14Z" fill="#065076"/>
</g>
</svg>
