<svg width="40" height="40" viewBox="0 0 40 40" fill="none" xmlns="http://www.w3.org/2000/svg">
<mask id="mask0_20_122" style="mask-type:alpha" maskUnits="userSpaceOnUse" x="0" y="0" width="40" height="40">
<rect width="40" height="40" fill="#D9D9D9"/>
</mask>
<g mask="url(#mask0_20_122)">
<path d="M20 26.6667C22.0833 26.6667 23.8541 25.9375 25.3125 24.4792C26.7708 23.0209 27.5 21.25 27.5 19.1667C27.5 17.0834 26.7708 15.3125 25.3125 13.8542C23.8541 12.3959 22.0833 11.6667 20 11.6667C17.9166 11.6667 16.1458 12.3959 14.6875 13.8542C13.2291 15.3125 12.5 17.0834 12.5 19.1667C12.5 21.25 13.2291 23.0209 14.6875 24.4792C16.1458 25.9375 17.9166 26.6667 20 26.6667ZM20 23.6667C18.75 23.6667 17.6875 23.2292 16.8125 22.3542C15.9375 21.4792 15.5 20.4167 15.5 19.1667C15.5 17.9167 15.9375 16.8542 16.8125 15.9792C17.6875 15.1042 18.75 14.6667 20 14.6667C21.25 14.6667 22.3125 15.1042 23.1875 15.9792C24.0625 16.8542 24.5 17.9167 24.5 19.1667C24.5 20.4167 24.0625 21.4792 23.1875 22.3542C22.3125 23.2292 21.25 23.6667 20 23.6667ZM20 31.6667C15.9444 31.6667 12.25 30.5347 8.91663 28.2709C5.58329 26.007 3.16663 22.9722 1.66663 19.1667C3.16663 15.3611 5.58329 12.3264 8.91663 10.0625C12.25 7.79863 15.9444 6.66669 20 6.66669C24.0555 6.66669 27.75 7.79863 31.0833 10.0625C34.4166 12.3264 36.8333 15.3611 38.3333 19.1667C36.8333 22.9722 34.4166 26.007 31.0833 28.2709C27.75 30.5347 24.0555 31.6667 20 31.6667ZM20 28.3334C23.1388 28.3334 26.0208 27.507 28.6458 25.8542C31.2708 24.2014 33.2777 21.9722 34.6666 19.1667C33.2777 16.3611 31.2708 14.132 28.6458 12.4792C26.0208 10.8264 23.1388 10 20 10C16.8611 10 13.9791 10.8264 11.3541 12.4792C8.72913 14.132 6.72218 16.3611 5.33329 19.1667C6.72218 21.9722 8.72913 24.2014 11.3541 25.8542C13.9791 27.507 16.8611 28.3334 20 28.3334Z" fill="#065076"/>
</g>
</svg>
